<svg width="677" height="508" viewBox="0 0 677 508" fill="none" xmlns="http://www.w3.org/2000/svg">
<path fill-rule="evenodd" clip-rule="evenodd" d="M526.893 103.849C529.817 113.42 531.074 122.777 533.527 132.419C536.229 143.033 539.075 154.069 542.773 164.368C549.682 183.619 560.961 196.623 571.594 214.312C579.888 228.113 602.817 274.756 607.082 282.113C609.747 286.711 611.459 293.49 613.289 298.482C614.325 301.307 615.438 308.437 614.947 311.336C606.95 310.442 598.448 309.464 590.623 311.336C588.077 311.946 579.345 317.192 576.891 316.578C574.186 315.901 575.787 311.787 574.761 309.281C571.851 302.174 568.598 294.911 566.471 287.557C564.299 280.038 549.771 233.415 541.545 218.266C537.317 210.48 534.153 202.626 529.44 195.124C524.54 187.322 520.477 179.836 512.43 174.895C513.264 168.139 517.107 160.766 519.333 154.313C521.51 147.999 522.537 142.487 523.334 135.758C524.093 129.369 526.519 123.113 525.592 116.6C525.11 113.212 522.895 110.945 522.076 107.95C521.605 106.226 520.335 107.742 522.131 105.579C522.969 104.57 525.824 104.567 526.893 103.849ZM520.181 108.84C521.572 116.416 516.989 126.854 515.344 134.326C513.621 142.152 511.56 149.796 509.703 157.569C508.782 161.424 507.013 164.815 505.872 168.548C504.593 172.738 504.001 177.11 502.689 181.317C500.073 189.7 496.467 197.741 497.493 206.665C498.384 214.425 499.45 222.79 501.99 230.16C505.004 238.906 507.838 247.165 508.517 256.485C509.161 265.349 507.013 274.577 504.692 283.071C503.87 286.078 497.668 307.888 495.788 307.575C494.358 297.691 486.714 288.013 481.79 279.445C476.126 269.591 467.832 261.06 459.617 253.213C461.923 252.31 464.112 247.542 465.222 245.293C466.756 242.188 468.539 239.043 470.296 236.066C473.515 230.614 482.592 208.942 485.363 203.515C488.644 197.089 510.532 132.215 510.044 125.491C509.825 122.485 509.651 121.373 511.246 119.098C513.334 116.118 517.793 111.724 520.181 108.84ZM469.505 105.833C469.505 108.825 469.774 109.369 467.992 111.373C466.485 113.069 464.533 114.295 463.07 116.128C459.79 120.239 456.913 124.694 454.577 129.413C450.039 138.586 447.033 149.439 445.536 159.557C443.884 170.725 444.845 182.181 444.116 193.42C443.845 197.597 443.128 202.531 440.362 205.893C437.888 208.902 433.386 211.105 429.983 212.825C422.195 216.761 415.63 221.962 409.695 228.483C408.247 230.072 407.848 233.696 406.204 235.014C404.543 236.345 399.493 240.295 397.548 241.165C393.028 243.187 375.42 241.274 370.641 240.437C365.876 239.603 359.096 235.621 354.891 233.529C348.924 230.559 341.388 224.263 332.285 214.641C358.063 204.771 387.806 195.464 410.825 179.66C410.956 181.541 414.23 186.743 414.566 185.191C416.717 175.274 418.161 165.226 420.284 155.313C420.849 152.68 421.411 150.039 422.429 147.553C422.939 146.308 416.97 145.352 414.566 146.306C405.608 149.861 396.312 151.596 386.879 153.68C369.497 157.52 349.735 158.993 334.711 169.486C328.302 173.963 321.92 179.68 316.72 185.33C310.948 191.604 305.582 201.947 304.793 210.68C294.358 205.969 280.719 208.003 269.961 208.979C273.865 199.13 286.584 189.417 294.43 182.705C300.91 177.159 307.249 171.413 314.398 166.701C330.351 156.187 346.435 146.234 364.835 140.28C373.942 137.334 383.037 134.359 392.517 132.831C397.685 131.998 402.931 131.742 408.128 131.218C413.197 130.706 415.128 129.62 418.877 126.047C425.88 119.373 435.506 117.884 444.529 115.489C453.398 113.135 461.92 111.133 469.505 105.833ZM313.031 73.3645L324.871 79.375C320.079 81.323 316.36 82.6459 313.713 83.3437C309.742 84.3905 304.292 99.7164 299.182 99.7164C294.072 99.7164 294.032 86.3445 296.559 80.8731C298.243 77.2254 303.734 74.7226 313.031 73.3645Z" fill="#FA643D"/>
<path fill-rule="evenodd" clip-rule="evenodd" d="M269.802 266.013C270.546 266.268 270.821 265.785 270.625 264.566C269.881 264.233 269.607 264.715 269.802 266.013ZM527.924 80.2575C526.746 80.3657 527.412 81.5323 528.112 81.9684C528.049 81.3984 527.987 80.8284 527.924 80.2575ZM459.238 251.753C459.941 251.214 459.69 250.758 458.489 250.387C457.805 250.944 458.056 251.401 459.238 251.753ZM193.001 248.824C189.182 248.21 186.223 242.409 183.074 243.63C179.132 245.159 175.524 252.059 172.831 255.166C174.907 256.838 177.205 258.34 179.403 259.846C181.671 261.4 181.089 261.949 183.375 260.103C185.039 258.76 186.372 256.341 187.752 254.691C189.41 252.707 191.516 250.943 193.001 248.824ZM281.013 468.567C281.689 468.625 282.147 453.334 282.696 451.23C283.914 446.559 286.038 441.857 288.389 437.657C289.393 435.865 291.186 433.552 291.948 431.713C293.121 428.878 291.222 426.942 290.687 423.688C289.546 416.749 291.059 410.617 293.484 404.184C289.019 403.166 284.711 401.491 280.17 400.793C280.17 406.933 279.564 412.079 277.039 417.711C276.406 419.122 275.133 420.267 275.678 421.993C275.855 422.555 277.415 422.92 277.79 423.437C279.893 426.348 280.232 428.662 280.346 432.292C280.725 444.487 279.396 456.458 281.013 468.567ZM249.387 257.622C251.855 259.712 259.734 244.958 262.444 245.042C268.205 245.222 260.02 259.727 259.519 261.502C261.823 260.679 264.003 255.451 265.235 253.424C266.292 251.687 270.175 243.16 272.394 242.633C276.721 241.608 274.802 249.492 274.196 251.341C272.835 255.501 271.503 259.618 270.315 263.833C272.843 262.45 274.718 254.175 275.853 251.472C277.42 247.734 278.676 243.637 281.121 240.368C282.791 238.138 285.536 234.992 288.548 234.835C292.21 234.644 293.587 238.555 296.886 239.286C297.326 230.953 296.508 222.576 297.48 214.267C290.968 214.404 284.42 214.706 277.991 215.818C274.37 216.443 271.966 216.418 270.182 219.813C268.8 222.443 267.72 225.192 266.414 227.861C261.395 238.121 256.029 248.309 249.387 257.622ZM166.998 226.519C162.243 231.409 157.944 236.466 153.465 241.595C148.974 246.736 142.728 250.034 138.485 255.343C134.609 260.195 131.699 265.78 128.003 270.79C123.912 276.337 120.526 282.548 117.042 288.5C120.633 289.158 121.518 289.232 123.844 286.559C125.77 284.346 127.346 281.682 129.29 279.451C133.808 274.262 138.164 270.036 143.811 265.97C149.33 261.997 156.439 258.52 163.04 256.498C165.614 255.71 166.56 255.909 167.985 253.55C169.008 251.86 169.381 249.743 170.418 248.012C172.659 244.276 176.198 242.177 179.716 239.807C175.741 235.116 170.976 231.283 166.998 226.519ZM484.53 84.1471C483.226 85.1249 483.051 88.7973 482.452 90.3227C481.352 93.1246 479.792 95.754 478.425 98.4298C476.026 103.127 474.033 108.386 474.122 113.774C474.211 119.313 478.497 122.493 483.645 123.498C489.304 124.602 493.646 122.372 498.619 119.989C503.554 117.622 507.626 113.883 511.552 110.106C514.658 107.118 516.638 102.251 520.16 100.574C523.502 98.9818 527.607 97.5739 528.613 92.8491C529.3 89.6214 527.991 89.9999 525.167 90.6884C522.161 91.4198 519.984 93.3556 517.196 94.3951C518.748 90.8498 519.121 87.9397 517.209 84.4656C516.109 82.4646 514.044 79.1536 511.543 79.0738C509.895 79.0214 507.926 80.8267 506.407 81.4078C504.547 82.1178 502.487 82.4448 500.573 82.9736C494.901 84.5437 490.355 84.845 484.53 84.1471ZM495.706 307.451C497.608 307.768 503.736 286.029 504.578 282.944C506.894 274.45 509.031 265.215 508.389 256.355C507.713 247.011 504.836 238.805 501.887 230.026C499.396 222.619 498.31 214.31 497.404 206.529C496.365 197.594 499.968 189.567 502.582 181.179C503.789 177.304 504.425 173.339 505.486 169.441C506.602 165.341 508.573 161.622 509.572 157.428C511.423 149.651 513.471 142.008 515.192 134.183C516.83 126.738 521.303 117.878 519.919 110.317C517.59 113.14 514.775 115.601 512.473 118.374C510.127 121.203 510.943 121.425 511.227 125.347C511.695 131.824 510.336 139.347 508.831 145.64C505.692 158.758 500.142 170.672 496.092 183.4C494.011 189.943 493.183 197.322 490.238 203.498C487.598 209.036 483.945 213.959 481.145 219.311C478.075 225.176 474.482 230.714 471.125 236.419C469.535 239.122 467.882 241.768 466.471 244.572C465.282 246.935 463.965 252.633 461.636 253.548C469.833 261.405 476.108 269.452 481.757 279.318C486.674 287.905 494.278 297.543 495.706 307.451ZM512.761 174.819C520.497 179.573 524.374 186.556 529.122 194.05C533.859 201.527 538.294 209.181 542.51 216.964C550.897 232.445 557.068 247.824 561.703 264.849C563.793 272.528 566.836 279.983 569.008 287.501C571.015 294.448 571.667 301.516 574.555 308.172C575.353 310.01 575.969 314.075 578.084 314.724C580.576 315.489 587.263 312.063 589.783 311.432C597.968 309.385 606.504 308.973 614.898 309.913C615.389 307.015 612.07 301.301 611.035 298.477C609.326 293.812 607.789 288.836 605.497 284.425C601.549 276.828 596.985 269.439 592.417 262.28C587.578 254.696 583.598 246.56 578.649 239.164C576.365 235.75 573.1 231.145 571.599 227.35C570.857 225.475 570.625 224.751 569.729 223.161C568.949 221.771 568.036 220.401 567.211 219.026C556.806 201.703 549.12 184.122 542.431 165.238C538.769 154.902 535.709 144.498 532.811 133.918C530.087 123.977 529.571 113.725 526.546 103.816C524.766 105.011 521.781 104.844 521.836 107.212C521.846 107.678 524.342 110.994 524.616 111.639C525.168 112.946 525.508 114.327 525.76 115.72C526.989 122.49 524.522 129.058 523.651 135.707C522.808 142.141 522.049 147.41 519.859 153.447C517.488 159.984 513.607 167.967 512.761 174.819ZM334.604 214.823C342.166 221.41 349.172 228.804 358.123 233.255C362.327 235.344 365.669 238.307 370.434 239.14C375.217 239.977 380.151 239.503 384.951 239.161C389.858 238.812 394.298 238.754 398.818 236.733C400.762 235.865 403.719 235.023 405.38 233.694C407.025 232.376 408.06 230.24 409.508 228.652C415.444 222.137 422.009 216.94 429.796 213.009C438.475 208.626 443.277 203.648 443.929 193.62C444.657 182.392 443.696 170.945 445.348 159.787C446.848 149.663 449.846 138.842 454.39 129.67C456.724 124.955 459.602 120.504 462.881 116.397C464.345 114.565 466.296 113.34 467.804 111.646C469.585 109.644 469.316 109.1 469.316 106.111C461.731 111.405 453.21 113.406 444.341 115.758C435.347 118.144 425.668 119.662 418.69 126.307C414.942 129.877 413.011 130.962 407.941 131.473C402.745 131.997 397.499 132.252 392.331 133.084C382.848 134.612 373.759 137.583 364.65 140.527C346.251 146.476 330.167 156.421 314.215 166.924C307.061 171.636 300.732 177.37 294.247 182.914C286.402 189.621 275.854 198.606 271.951 208.446C282.7 207.473 293.614 204.363 304.046 209.069C304.838 200.322 310.76 191.811 316.537 185.538C321.66 179.975 327.924 174.416 334.192 169.941C349.192 159.232 369.196 156.457 386.658 152.603C396.097 150.52 404.896 148.895 413.86 145.342C416.13 144.442 422.752 140.416 424.002 142.814C424.801 144.348 422.752 146.549 422.242 147.794C421.36 149.943 420.858 152.177 420.347 154.448C418.043 164.691 416.608 175.129 414.379 185.399C414.051 186.911 413.614 193.751 410.901 192.822C409.092 192.203 410.769 181.758 410.638 179.871C387.617 195.666 360.385 204.961 334.604 214.823ZM360.48 391.136C355.365 391.357 350.154 394.116 345.194 395.37C338.509 397.063 331.492 398.786 325.304 401.819C322.01 403.435 321.979 404.379 322.88 408.061C323.589 410.955 324.407 413.757 325.003 416.702C326.482 424.013 328.136 431.231 329.977 438.457C349.032 422.526 373.355 413.516 397.124 407.379C400.487 406.51 403.913 406.243 407.322 405.649C410.308 405.129 413.71 405.499 416.542 404.911C418.361 404.533 420.005 403.305 421.864 402.874C425.886 401.94 430.679 401.865 434.549 400.431C439.728 398.514 445.521 395.978 450.645 393.365C456.239 390.509 460.74 388.424 461.878 382.285C462.781 377.416 465.047 372.867 465.75 368.087C466.667 361.855 465.529 356.317 465.146 350.087C464.258 335.67 462.165 321.097 458.506 307.035C454.997 293.552 452.493 279.75 450.075 266.082C449.603 263.418 448.662 260.964 448.045 258.345C447.017 253.991 444.975 255.107 441.028 255.363C433.646 255.84 425.841 252.891 419.711 248.909C416.816 247.029 413.158 242.732 409.847 241.808C406.899 240.985 403.89 244.975 401.074 246.313C394.349 249.507 386.102 250.371 378.761 250.875C362.747 251.974 350.612 241.533 339.7 230.912C332.375 239.119 324.437 246.922 315.932 253.895C308.923 259.642 302.966 267.104 297.132 273.946C291.652 280.375 287.219 290.375 279.776 294.88C275.436 297.507 272.2 295.844 268.009 293.203C264.683 291.105 261.015 289.962 257.665 288.026C242.202 279.086 227.6 268.989 212.492 259.512C209.188 257.44 203.994 252.564 200.106 252.214C197.225 251.953 197.452 252.675 195.786 255.064C194.171 257.381 192.534 259.68 190.932 262.004C184.65 271.114 177.954 280.517 172.863 290.355C183.946 287.707 194.424 287.3 205.331 288.864C215.364 290.303 228.174 292.041 237.056 297.475C240.85 299.796 244.576 302.403 248.361 305.042C253.112 308.354 256.801 312.985 262.06 315.483C266.596 317.637 271.504 318.612 276.219 320.217C281.516 322.019 289.031 325.379 294.657 323.92C299.451 322.676 303.466 318.416 307.074 315.482C311.77 311.665 317.476 309.055 322.227 305.497C330.647 299.192 339.437 293.804 348.493 288.169C359.306 281.439 369.68 273.705 380.904 267.78C383.111 266.615 385.293 265.807 387.348 264.415C389.278 263.105 390.669 260.71 392.992 262.418C395.058 263.934 394.156 266.728 393.531 268.673C392.945 270.497 392.403 271.08 392.781 272.671C393.133 274.152 395.406 276.423 396.187 277.871C399.876 284.705 402.511 292.043 406.045 298.956C409.485 305.679 413.366 312.147 416.564 318.997C422.877 332.519 431.691 344.501 437.282 358.456C434.707 359.513 434.386 357.338 432.389 357.132C430.206 356.906 430.996 357.322 428.828 358.888C425.922 360.989 422.804 362.317 419.684 363.955C412.74 367.604 405.628 371.897 398.134 374.418C385.261 378.75 373.397 386.404 360.48 391.136ZM581.977 328.008C581.532 331.208 580.96 334.383 580.495 337.577C580.167 339.836 578.905 343.107 579.192 345.342C582.508 343.773 586.077 338.514 588.637 344.266C590.162 347.692 588.25 354.493 587.8 358.18C591.548 357.418 590.701 348.195 596.69 351.172C601.295 353.46 598.073 365.092 601.673 366.225C604.16 362.296 603.75 353.383 604.564 348.706C604.945 346.514 604.399 343.569 606.96 343.427C609.178 343.303 610.934 346.524 611.984 347.996C612.984 342.652 615.682 337.908 614.504 332.987C613.777 329.944 613.031 326.898 612.252 323.866C611.794 322.081 611.306 316.602 609.757 315.376C606.874 313.092 596.34 317.158 593.155 318.075C590.249 318.912 586.544 319.705 583.87 321.115C581.061 322.598 581.922 324.732 581.977 328.008ZM488.635 144.054C492.949 143.581 496.688 140.962 499.999 138.231C505.424 133.756 506.247 130.251 507.278 123.356C500.32 126.754 495.181 129.564 487.33 129.706C478.343 129.868 473.926 124.589 469.794 117.325C468.685 119.018 467.103 120.814 466.294 122.669C465.272 125.012 465.401 124.525 465.697 126.904C466.155 130.577 467.981 135.282 469.836 138.505C473.842 145.463 481.717 146.404 488.635 144.054ZM311.008 423.582H319.167C318.699 420.587 318.231 417.593 317.764 414.598C317.356 411.984 318.033 408.307 315.469 407.852C313.346 407.476 311.239 409.833 309.079 409.622C306.613 409.381 305.196 407.609 302.338 408.322C298.27 409.338 299.083 413.801 299.022 417.547C298.999 419.018 298.434 421.23 298.893 422.66C299.693 425.156 299.025 424.16 301.5 424.403C304.407 424.689 308.014 423.745 311.008 423.582ZM513.274 62.8725C516.264 63.3489 524.004 69.7219 526.189 68.2017C529.156 66.1388 520.627 60.4397 518.88 59.5426C510.341 55.1577 494.368 58.6224 488.628 66.6281C492.39 66.9947 496.987 63.5421 500.846 62.9746C504.981 62.3669 509.12 62.8828 513.274 62.8725ZM511.191 227.806C513.625 237.63 517.994 248.157 517.968 258.369C517.94 268.985 515.601 278.619 511.313 288.338C509.168 293.201 507.248 298.118 504.81 302.845C503.682 305.035 502.644 307.718 501.084 309.628C499.159 311.983 498.562 311.809 496.273 309.938C495.25 312.56 494.177 315.262 490.699 313.5C488.194 312.23 488.248 309.084 487.428 306.746C485.23 300.477 480.533 295.07 477.216 289.359C473.815 283.504 470.946 277.205 467.183 271.576C465.372 268.866 463.213 266.343 461.279 263.711C459.811 261.717 457.572 257.105 455.534 255.935C455.265 258.564 458.064 262.393 459.097 264.961C460.455 268.332 461.62 271.799 462.599 275.299C464.503 282.096 465.652 289.199 467.102 296.109C469.692 308.462 472.747 320.735 474.481 333.272C476.094 344.937 476.523 356.988 475.297 368.704C474.772 373.736 471.827 377.992 469.842 382.575C467.144 388.805 463.865 392.69 458.445 397.11C448.602 405.136 437.705 409.938 425.717 413.521C423.481 414.189 421.403 413.898 419.305 414.352C416.951 414.859 415.078 416.061 412.52 416.462C405.916 417.496 399.199 418.713 392.824 420.588C387.799 422.067 382.836 423.607 377.865 425.144C374.076 426.315 369.409 427.403 365.762 429.129C356.766 433.387 348.328 438.382 339.98 443.674C337.532 445.227 335.728 446.167 333.923 448.463C331.97 450.948 332.253 452.704 331.188 455.538C330.195 458.183 328.462 459.672 326.107 457.474C323.905 455.418 324.775 451.082 324.596 448.54C324.327 444.705 322.059 430.045 319.425 428.819C317.523 427.934 311.962 429.837 309.656 430.091C306.667 430.42 303.974 430.412 300.998 430.003C301.982 434.108 298.389 439.658 296.879 443.267C294.306 449.422 292.303 455.418 291.236 461.968C290.51 466.434 290.743 470.918 290.058 475.436C289.352 480.1 290.423 487.412 284.101 488.112C274.067 489.223 271.508 469.108 270.367 462.363C268.576 451.785 269.993 441.361 271.049 430.726C271.136 429.864 271.573 426.075 271.184 425.387C270.866 424.827 268.045 423.86 267.682 423.601C264.501 421.336 265.796 420.132 266.743 416.758C268.552 410.311 268.027 402.255 272.374 396.618C275.699 392.305 283.163 394.925 287.464 396.089C290.669 396.957 293.836 398.125 296.95 399.281C299.103 400.08 301.508 402.471 303.394 402.856C307.155 403.626 309.926 398.814 312.732 397.109C317.794 394.035 323.073 391.208 328.528 389.147C338.549 385.359 348.92 383.184 359.202 379.996C365.497 378.045 371.714 375.912 377.694 373.092C382.112 371.009 386.568 368.077 391.349 366.666C397.37 364.888 403.481 362.416 409.358 359.959C415.609 357.347 422.449 355.672 428.865 353.555C415.509 333.963 404.095 313.007 394.922 291.117C393.864 288.593 392.848 286.055 391.911 283.483C391.434 282.174 390.263 276.305 389.021 275.476C386.763 273.972 377.694 280.788 375.168 282.448C366.011 288.458 357.231 295.026 347.692 300.489C339.432 305.219 331.639 310.705 323.739 315.778C319.389 318.572 315.342 322.135 310.918 324.957C306.506 327.77 301.315 333.01 296.088 334.225C294.138 334.679 290.834 334.125 288.863 333.964C286.085 333.738 282.983 333.488 280.281 332.714C274.983 331.199 269.385 329.478 264.208 327.591C254.901 324.2 247.688 315.835 239.298 310.67C229.186 304.444 217.731 302.893 206.43 299.452C194.064 295.687 180.349 295.277 167.298 296.255C167.298 284.323 173.046 275.374 179.319 265.582C174.801 262.61 172.895 260.758 167.838 263.508C164.087 265.548 160.629 267.382 157.149 269.662C153.369 272.14 149.346 274.04 145.582 276.757C141.491 279.709 137.912 282.842 134.134 286.147C131.293 288.632 128.057 290.891 125.086 293.138C122.151 295.357 119.162 295.036 115.409 293.523C114.302 293.077 110.846 291.52 110.261 290.769C109.082 289.257 109.954 288.202 110.933 286.208C113.198 281.592 116.092 276.907 119.048 272.687C121.687 268.921 125.112 265.776 127.875 262.103C130.499 258.618 132.374 254.571 135.413 251.413C138.812 247.879 142.842 245.044 146.051 241.28C147.651 239.402 149.474 237.4 149.6 235.185C149.698 233.485 147.809 231.839 147.791 230.619C147.751 227.756 152.646 224.844 154.69 222.738C157.691 219.645 160.655 216.972 165.29 218.299C168.693 219.273 173.812 223.57 176.347 226.067C179.537 229.211 182.181 232.849 185.471 235.959C187.32 237.708 189.292 239.304 191.204 240.98C192.334 241.971 194.126 244.813 195.376 245.392C196.494 245.912 197.585 245.421 199.147 245.379C198.443 245.397 202.006 245.998 201.816 245.946C203.502 246.399 205.167 246.889 206.828 247.427C213.659 249.638 219.952 253.369 226.115 257.084C241.77 266.52 256.46 276.576 271.792 286.633C276.333 289.611 277.582 289.4 281.068 285.136C284.322 281.158 287.02 276.737 290.076 272.613C295.113 265.818 300.792 259.209 306.739 253.171C312.861 246.957 319.918 241.754 326.461 236.004C328.278 234.407 335.766 229.015 335.293 226.994C335.027 225.852 332.606 223.925 331.839 222.756C330.694 221.014 329.508 219.047 328.664 217.125C323.694 205.809 336.593 205.034 344.141 201.537C353.355 197.267 362.477 192.551 371.895 188.738C376.624 186.825 381.359 185.077 386.133 183.303C390.528 181.669 394.53 179.021 398.855 177.218C402.041 175.89 408.962 175.383 411.085 172.558C412.338 170.892 411.798 165.629 412.018 163.688C412.381 160.466 412.917 157.263 413.758 154.129C412.179 153.844 409.215 155.582 407.78 156.25C405.015 157.536 402.608 158.802 399.54 159.611C392.977 161.339 386.105 161.537 379.638 163.413C369.796 166.271 359.302 167.925 349.675 172.025C338.591 176.746 329.047 185.049 321.261 194.012C317.242 198.639 314.046 203.086 311.304 208.578C310.593 210 309.751 214.766 308.659 215.758C307.268 217.022 303.598 215.692 302.018 215.431C302.018 219.637 302.105 223.849 301.955 228.048C301.795 232.48 302.592 239.279 301.062 243.367C299.626 247.205 296.945 246.411 294.106 244.502C290.333 241.966 288.398 240.511 285.016 244.441C279.132 251.277 276.906 261.896 272.871 269.897C271.549 272.518 268.29 278.005 266.508 272.619C265.209 268.693 267.363 263.686 266.356 259.807C264.981 262.227 260.87 269.426 257.617 269.406C253.141 269.379 254.601 262.415 254.75 259.576C252.111 262.399 244.365 271.622 242.491 264.229C241.051 258.555 245.071 252.924 247.925 248.456C251.247 243.258 254.511 237.98 257.958 232.87C261.33 227.87 263.588 222.203 267.007 217.172C264.4 217.534 259.356 216.68 260.958 212.638C261.797 210.524 264.449 211.413 265.744 210.1C267.092 208.734 267.819 204.854 268.574 203.064C272.292 194.24 277.625 186.985 283.791 179.81C294.687 167.131 308.599 157.009 322.625 148.517C339.338 138.4 356.566 132.248 375.28 127.302C384.148 124.96 393.14 123.882 402.104 122.195C405.825 121.494 409.599 121.099 412.544 118.737C416.933 115.214 419.828 112.606 425.119 110.358C429.395 108.541 433.452 107.703 438.116 106.927C443.114 106.095 448.849 107.202 453.652 105.788C457.643 104.612 462.295 102.059 465.92 100.016C467.746 98.9878 470.98 98.4083 471.965 97.5336C473.868 95.8459 475.128 91.6378 476.343 89.3716C473.337 90.1605 472.191 88.0204 471.387 85.4279C470.048 81.1168 470.035 82.5496 465.857 80.7443C463.383 79.6747 462.583 76.8204 460.622 75.8074C458.519 74.7198 455.183 77.065 452.7 76.3027C450.686 75.6838 448.718 73.5154 448.828 71.207C448.873 70.2439 449.887 69.3889 449.904 68.6043C449.948 66.7655 448.449 65.75 448.668 63.7343C449.007 60.6148 450.589 61.1419 449.246 57.7613C447.909 54.3963 448.43 53.7327 448.832 50.2449C448.944 49.2808 448.449 47.7279 449.121 46.9081C449.513 46.4291 450.947 46.3553 451.093 46.1132C451.64 45.2093 451.658 44.4667 451.768 42.8091C451.831 41.8648 451.54 39.9762 452.52 39.2775C453.372 38.6706 454.58 39.7986 455.326 39.4414C455.974 39.1315 456.534 37.5872 457.597 37.4009C461.523 36.7125 460.325 40.7154 462.331 35.7193C463.492 32.8255 464.384 31.6408 466.468 29.9952C467.374 30.4141 467.938 30.245 468.163 29.4862C468.467 28.9376 468.773 28.3899 469.079 27.8422C470.704 27.4568 470.937 28.6766 472.195 27.4783C474.306 25.4669 472.134 21.0125 476.399 22.2049C479.493 23.0693 480.244 27.0439 483.48 27.9985C483.927 26.704 483.869 22.92 485.748 22.5371C487.661 22.1474 489.118 25.6412 489.814 26.7821C490.266 25.8009 491.015 22.8625 491.761 22.1439C493.903 20.0794 493.255 22.0796 495.151 22.3543C495.448 22.7036 495.747 23.0539 496.044 23.4041C497.036 22.9191 498.012 22.4075 498.973 21.8658C501.052 21.4718 500.311 21.6873 502.124 22.4221C503.574 23.0101 502.707 23.6823 504.468 24.0522C505.748 24.3192 506.83 22.9886 508.254 23.3964C508.668 23.5775 509.084 23.7595 509.498 23.9406C510.084 25.2446 510.985 25.4755 512.199 24.6325C513.63 25.224 515.562 27.601 517.086 27.5229C520 27.371 519.314 23.3526 522.509 23.5492C523.693 23.6213 526.755 26.813 527.6 27.7607C528.785 29.0904 528.449 30.239 529.933 31.7344C532.083 33.9002 530.822 32.7388 532.874 33.7191C535.933 35.181 537.06 34.6282 538.32 38.1469C539.416 41.2072 540.03 45.0144 540.042 48.2567C540.049 50.2801 538.597 54.7422 541.399 53.7636C543.366 53.0769 543.036 48.1915 545.146 49.7238C546.751 50.8878 543.585 57.1124 543.548 58.5726C543.442 62.7738 544.112 63.1103 541.513 66.2496C540.281 67.7364 537.459 70.4765 536.834 72.4028C536.095 74.6811 538.058 78.6274 538.511 80.6627C539.493 85.0802 538.663 86.0134 535.752 89.4849C535.439 89.672 535.127 89.86 534.814 90.0471C533.26 90.0437 532.828 90.8206 533.52 92.3761C532.901 94.111 532.975 95.7832 532.099 97.5267C531.62 98.4796 529.506 100.408 529.398 101.351C529.207 103.032 530.04 103.326 531.452 105.069C537.146 112.094 539.753 121.198 542.57 129.649C547.53 144.533 553.645 159.051 559.567 173.619C561.875 179.297 564.214 184.751 566.609 190.493C569.59 197.641 573.779 204.168 577.323 211.095C579.772 215.884 582.272 221.141 585.333 225.272C589.183 230.469 591.347 237.15 594.724 242.776C598.331 248.785 602.542 254.706 606.021 260.891C609.348 266.805 613.458 272.219 616.617 278.294C620.561 285.878 625.153 294.99 626.238 303.585C626.622 306.631 627.817 311.654 625.931 314.261C623.978 316.959 618.6 318.087 615.871 316.073C618.6 322.438 620.296 329.57 621.521 336.377C622.049 339.318 622.786 341.914 622.14 344.92C621.561 347.606 622.521 346.042 620.356 347.613C618.543 348.928 619.381 345.22 617.957 349C617.656 349.797 618.246 352.009 618.224 352.934C618.142 356.648 617.866 360.431 617.721 364.167C617.612 367.001 618.068 369.392 614.592 369.092C611.806 368.852 610.427 365.888 609.19 363.796C608.726 367.127 608.46 370.451 608.076 373.791C607.737 376.755 608.416 379.682 604.629 379.363C598.42 378.838 595.972 367.563 594.399 362.852C591.57 366.587 590.195 374.001 588.951 378.568C587.766 382.915 586.385 392.167 580.332 386.475C576.299 382.682 577.861 375.222 578.584 370.368C578.823 368.767 582.228 354.7 580.636 353.889C578.36 356.329 575.709 360.316 571.96 358.164C568.591 356.231 569.687 351.935 569.956 348.834C570.719 340.013 573.74 331.557 575.98 323.009C574.706 322.723 571.607 322.469 570.557 321.519C569.212 320.301 570.042 319.709 569.451 318.153C568.652 316.045 567.217 313.904 566.084 311.902C562.392 305.379 561.255 298.876 559.347 291.778C557.505 284.922 554.035 278.887 552.194 271.943C550.154 264.25 547.981 256.69 545.574 249.028C540.318 232.289 532.747 216.352 524.044 201.17C522.9 199.177 513.537 177.646 512.127 178.282C511.121 178.737 510.545 184.308 510.161 185.813C509.272 189.3 509.097 192.965 508.888 196.559C505.457 204.939 509.109 219.402 511.191 227.806Z" fill="black"/>
<path fill-rule="evenodd" clip-rule="evenodd" d="M194.752 199.432C198.248 200.267 199.498 192.103 199.89 189.576C200.522 185.478 201.248 181.954 203.451 178.371C204.523 176.629 205.803 174.837 207.193 173.335C208.004 172.46 210.035 171.32 210.46 170.381C211.633 167.786 210.27 161.261 210.285 158.341C210.295 156.465 209.072 147.739 211.269 147.13C214.122 146.338 214.866 154.296 215.182 156.088C215.543 158.139 215.484 160.117 215.702 162.147C215.904 164.041 216.933 165.215 217.328 166.477C218.455 170.085 215.778 173.115 213.86 176.365C211.724 179.983 209.414 183.497 207.915 187.447C206.289 191.731 206.393 196.244 205.122 200.582C203.055 207.631 194.386 211.475 187.364 209.407C183.631 208.308 184.416 205.78 183.233 202.867C182.785 201.762 181.527 201.148 181.152 199.68C180.756 198.126 181.119 196.102 181.424 194.533C182.9 186.935 185.297 178.979 187.612 171.587C175.011 178.541 161.667 183.122 147.157 182.862C139.945 182.731 134.691 181.181 129.467 187.356C125.418 192.141 125.424 200.558 123.771 206.509C121.978 212.969 120.361 221.244 116.278 226.65C111.353 233.174 104.629 232.1 104.127 223.4C103.698 215.984 107.38 208.955 106.763 201.426C106.452 197.638 104.963 194.3 105.055 190.463C105.133 187.166 105.779 184.069 106.388 180.823C99.1814 181.699 93.5996 184.667 88.4796 189.646C83.6854 194.307 81.686 200.063 77.7274 205.394C74.1151 210.258 70.9184 216.952 63.7879 216.786C54.6861 216.574 54.1132 205.344 57.5262 199.342C59.2708 196.275 61.6944 193.874 63.9119 191.171C66.3671 188.181 66.657 185.778 67.1633 181.958C67.5481 179.044 67.6542 175.196 70.2702 173.274C72.6228 171.545 75.5766 172.386 77.753 170.094C79.8354 167.902 81.4791 164.585 83.3493 162.162C85.6849 159.138 88.1025 156.012 90.1797 152.802C94.6489 145.889 100.522 141.08 106.713 135.672C104.468 134.27 98.5494 135.819 95.7692 135.376C91.2016 134.646 85.2906 132.467 81.7519 129.333C74.4058 122.825 70.8756 114.362 70.5139 104.58C70.1658 95.1844 71.6367 83.8528 78.6039 76.8709C82.1547 73.3118 86.7008 70.197 91.1871 67.9277C94.1743 66.4175 100.326 63.1234 103.781 64.4836C111.755 67.6267 93.7193 80.1273 91.341 82.1273C83.7641 88.4993 79.3514 94.6493 79.5275 104.842C79.6977 114.753 89.227 119.464 97.1973 122.743C101.331 124.444 106.325 125.808 110.943 125.684C116.176 125.544 119.735 122.532 124.502 120.765C133.884 117.289 143.509 114.951 153.18 112.609C162.704 110.301 173.063 110.822 182.816 109.315C191.984 107.899 200.551 106.152 209.217 102.81C218.191 99.3507 225.113 89.0319 234.901 87.9462C240.972 87.2738 238.004 91.5799 235.381 93.7882C232.243 96.4305 228.835 98.7324 225.695 101.383C217.695 108.134 209.315 112.106 199.177 114.68C191.812 116.548 183.872 118.296 176.045 119.411C166.164 120.819 156.22 120.379 146.513 122.944C140.766 124.462 135.185 126.395 129.764 128.861C127.543 129.871 122.949 131.49 122.538 133.287C122.005 135.612 123.862 135.566 121.623 137.708C117.852 141.318 112.946 143.87 109.137 147.616C104.895 151.788 100.859 155.834 97.4223 160.727C94.0135 165.58 91.2914 170.284 86.2433 173.631C84.5697 174.741 81.7288 176.687 79.8268 177.197C78.0763 177.667 77.2767 176.948 75.7784 177.924C71.7932 180.518 74.1809 188.62 73.129 192.631C71.7838 197.768 68.3392 201.625 66.1944 206.39C69.1952 205.739 71.2904 200.759 72.8332 198.41C74.5623 195.776 76.7525 194.001 78.9528 191.724C83.5794 186.938 84.804 180.392 90.3037 175.885C100.267 167.722 115.753 168.426 124.066 157.484C125.412 155.711 126.676 150.588 128.292 149.473C131.251 147.431 131 153.533 130.696 155.344C129.655 161.528 125.849 168.835 120.874 172.738C118.622 174.506 115.473 175.315 113.519 177.609C113.04 177.798 112.562 177.99 112.084 178.18C112.369 179.199 112.525 180.235 112.548 181.287C112.593 183.126 112.149 184.919 112.074 186.773C111.889 191.441 112.919 195.432 113.852 199.903C114.52 203.097 112.723 209.755 114.155 212.359C116.984 202.846 120.31 191.859 125.67 183.405C126.936 181.405 129.448 179.754 130.445 177.695C130.919 177.167 131.393 176.639 131.866 176.111C131.036 175.34 130.313 174.481 129.696 173.533C126.482 166.765 133.524 170.949 136.333 171.524C140.849 172.448 146.477 170.55 151.167 170.407C155.737 170.269 160.244 170.116 164.712 169.405C169.536 168.638 174.541 167.479 179.261 166.211C183.999 164.937 188.378 162.316 192.984 161.164C188.38 158.011 186.922 153.905 185.329 148.778C184.282 145.407 180.563 137.227 182.904 133.806C185.441 130.095 186.347 135.802 187.17 137.823C188.562 141.241 190.669 147.072 193.248 149.636C194.639 151.019 196.517 150.867 197.759 152.711C198.673 154.067 198.797 155.942 198.939 157.515C199.363 162.159 197.53 165.877 195.896 170.105C192.084 179.962 190.544 190.505 185.558 199.884C188.591 200.174 191.729 199.738 194.752 199.432Z" fill="black"/>
<path fill-rule="evenodd" clip-rule="evenodd" d="M258.533 121.765C260.966 121.191 268.623 120.354 266.402 115.885C264.154 111.364 258.171 118.675 258.533 121.765ZM331.012 86.1743C329.583 85.7299 327.317 84.6943 325.787 84.8042C323.974 84.9346 322.627 86.2507 320.788 86.4248C317.035 86.78 314.133 85.1757 311.68 89.1908C316.898 89.1908 327.335 90.9634 331.012 86.1743ZM232.578 179.822C237.543 180.516 240.01 158.542 240.272 155.664C238.046 155.436 232.042 159.818 231.518 161.837C230.944 164.054 232.924 167.612 233.164 169.918C233.521 173.33 233.143 176.462 232.578 179.822ZM260.247 54.3934C254.268 54.9768 247.579 56.9157 242.093 53.5843C237.644 50.8844 235.996 45.1876 232.249 41.8433C232.249 51.4884 240.905 59.0881 249.713 62.1484C254.197 63.7064 261.069 61.3565 265.032 63.896C266.181 64.6321 268.631 67.9858 268.72 69.3714C269.027 74.0936 265.668 69.8673 263.765 70.0132C261.121 70.2156 257.441 77.1993 255.236 79.3227C253.578 80.9202 251.707 82.2166 249.834 83.5893C249.217 84.0423 246.045 85.6501 245.886 86.4274C245.747 87.1172 247.486 89.6524 247.853 90.3062C250.375 94.8087 253.413 98.0354 257.399 101.212C259.363 102.776 261.409 103.648 263.378 104.948C264.02 105.373 266.632 108.938 265.873 108.788C266.971 105.448 270.096 101.58 272.176 98.6265C274.307 95.5989 277.117 92.427 280.69 91.201C282.26 90.6622 284.859 90.1998 286.493 90.0677C287.641 90.0273 288.777 90.1217 289.902 90.3508C291.541 91.0749 292.182 90.4924 291.825 88.6006C293.546 85.0195 292.532 80.511 294.72 76.8733C297.288 72.6024 301.489 70.6678 306.302 71.1491C308.465 71.3653 310.795 72.2953 312.937 71.9161C315.06 71.5403 317.465 69.8244 319.542 69.0849C327.609 66.2107 337.564 62.718 343.889 56.7304C344.849 55.8227 347.56 53.3038 347.773 51.9989C347.208 50.7257 346.645 49.4542 346.081 48.1818C345.933 46.3167 345.027 45.8079 343.364 46.6564C341.405 46.6152 337.69 48.8673 335.729 49.5117C333.24 50.3301 330.737 51.05 328.288 51.974C324.037 53.5775 319.898 55.2247 315.436 56.1788C310.814 57.1654 308.614 57.7668 306.182 53.3801C303.804 49.0921 304.141 46.5844 298.606 47.2115C293.671 47.7692 289.536 49.6344 284.988 51.6025C281.967 52.9091 278.031 55.3157 274.959 55.8313C272.682 56.2139 270.224 55.3251 268.03 54.867C265.26 54.2896 263.064 54.3908 260.247 54.3934ZM317.56 79.297H320.045C318.119 78.1628 316.192 77.0277 314.265 75.8935C311.553 80.2794 304.774 78.3721 300.665 80.9854C297.29 83.132 294.122 92.2795 297.362 95.6109C301.865 100.241 304.082 89.9673 305.361 87.6002C307.963 82.7828 311.881 79.1752 317.56 79.297ZM238.796 89.1162C236.779 85.3035 238.101 81.6589 241.094 79.6359C245.411 76.718 249.756 73.5213 253.99 70.2886C246.794 69.1578 241.638 66.7736 235.771 62.3766C229.003 57.3027 227.076 52.614 227.266 44.044C227.361 39.7422 226.761 27.5156 233.691 31.0649C239.416 33.9974 240.206 42.1977 246.365 44.9774C252.45 47.7228 259.618 44.8753 266.017 47.0133C267.838 47.6225 272.71 51.9071 274.19 51.8873C276.156 51.8599 281.094 47.5066 282.953 46.4728C287.617 43.8801 293.649 41.3517 298.845 40.6045C302.108 40.1352 303.171 39.7988 305.536 42.2088C308.184 44.9071 309.014 48.2428 309.959 51.7483C320.006 47.6036 330.155 43.7351 340.485 40.3557C343.766 39.2824 346.019 37.9096 348.818 36.18C352.825 33.704 355.055 34.8502 355.784 39.9696C357.067 48.9883 351.567 54.7563 346.787 61.5066C344.151 65.2293 342.35 67.8589 338.065 69.7601C333.604 71.7385 328.234 71.101 323.389 72.5879C324.633 74.1047 325.289 77.6369 326.384 78.7033C327.275 79.5698 331.535 79.4257 332.973 80.1824C337.28 82.4508 336.767 86.2369 334.099 89.981C331.088 94.2038 326.638 94.982 321.774 95.35C319.597 95.5139 317.656 95.5439 315.478 95.3895C314.068 95.29 309.16 93.7637 308.097 94.2158C306.838 94.7503 306.546 97.5327 305.973 98.8033C305.062 100.823 304.049 102.867 301.906 103.8C300.052 104.606 297.961 104.389 296.275 103.281C294.015 101.798 294.635 100.046 293.212 98.1418C293.078 96.1359 292.225 95.7559 290.651 96.9999C289.45 97.4211 288.25 97.8467 287.053 98.2765C284.575 99.1808 282.26 100.053 280.079 101.573C275.901 104.482 273.371 109.39 268.715 111.436C271.753 116.638 269.856 123.716 264.744 126.418C263.591 127.026 262.179 127.774 260.955 128.169C260.043 128.463 257.655 128.225 257.039 128.735C256.146 129.476 255.655 136.484 255.03 138.046C252.881 143.415 248.316 146.086 245.615 150.956C242.979 155.708 243.545 163.084 242.778 168.437C241.828 175.067 241.225 182.027 238.391 188.179C236.495 192.295 230.809 197.175 225.787 196.364C218.404 195.171 221.614 185.72 223.878 181.647C227.371 175.366 227.367 170.613 226.481 163.664C223.566 164.098 216.345 166.955 216.692 161.39C216.929 157.594 225.108 154.114 227.974 152.208C234.454 147.899 241.084 142.885 246.556 137.365C248.818 135.082 252.055 130.868 253.206 127.747C254.044 125.469 253.864 123.254 254.046 120.872C254.214 118.68 256.133 115.67 256.038 113.754C255.897 110.912 248.43 106.372 246.295 103.363C243.253 99.077 240.695 94.0082 238.796 89.1162Z" fill="black"/>
<path fill-rule="evenodd" clip-rule="evenodd" d="M388.362 98.658C390.651 98.358 399.447 95.916 400.958 98.202C403.714 102.372 395.612 103.149 393.575 103.527C384.573 105.195 375.766 107.413 367.037 109.898C349.672 114.84 331.967 121.042 315.794 129.094C313.261 130.354 305.818 135.485 303.283 132.893C300.007 129.545 307.954 125.83 309.774 124.787C317.841 120.163 326.365 116.015 335.023 112.61C352.078 105.903 370.097 100.676 388.362 98.658Z" fill="black"/>
<path fill-rule="evenodd" clip-rule="evenodd" d="M171.314 318.781C184.232 316.85 198.267 319.7 210.803 323.629C214.82 324.888 219.007 326.35 222.683 328.402C224.664 329.506 229.374 331.473 230.494 333.539C232.365 336.984 230.272 338.453 227.262 337.887C224.401 337.348 220.886 335.699 217.9 334.947C204.226 331.498 190.633 328.911 176.784 327.531C173.471 327.2 171.064 327.585 167.87 328.168C165.484 328.604 159.181 331.203 157.387 329.679C150.901 324.172 168.227 319.123 171.314 318.781Z" fill="black"/>
<path fill-rule="evenodd" clip-rule="evenodd" d="M372.302 345.281C373.177 350.191 370.685 350.649 366.521 352.944C362.269 355.288 358.021 357.214 353.529 359.106C348.689 361.145 343.617 363.235 338.575 364.723C334.305 365.984 327.719 368.809 323.284 368.39C321.495 368.221 320.338 368.455 320.324 366.234C320.311 363.824 322.573 363.968 324.439 363.436C330.151 361.807 335.682 359.362 341.298 357.422C351.876 353.771 362.471 350.688 372.302 345.281Z" fill="black"/>
<path fill-rule="evenodd" clip-rule="evenodd" d="M51.8712 105.158C48.5584 99.6787 48.6251 92.3742 49.5417 86.1828C49.8506 84.0958 54.876 68.6675 57.9123 71.8744C59.7132 73.7768 53.583 85.8934 52.9411 88.6623C52.1668 92.0006 51.7688 95.3029 52.2792 98.7151C52.4182 99.6375 54.4805 105.492 51.8712 105.158Z" fill="black"/>
<path fill-rule="evenodd" clip-rule="evenodd" d="M225.483 136.26C223.057 132.936 226.305 125.498 227.287 121.964C227.893 119.786 229.743 111.606 232.677 113.352C235.525 115.047 232.336 122.714 231.766 124.831C230.921 127.972 229.691 136.181 225.483 136.26Z" fill="black"/>
<path fill-rule="evenodd" clip-rule="evenodd" d="M494.605 313.413C495.051 312.35 495.497 311.288 495.943 310.224C497.076 311.087 498.657 311.511 497.504 312.819C496.795 313.624 495.601 313.623 494.605 313.413Z" fill="black"/>
<path fill-rule="evenodd" clip-rule="evenodd" d="M453.676 106.017C451.689 106.322 450.363 106.338 448.395 106.292C450.156 106.2 451.916 106.109 453.676 106.017Z" fill="black"/>
<path fill-rule="evenodd" clip-rule="evenodd" d="M518.048 260.615C518.043 259.292 518.038 257.968 518.034 256.646C518.039 257.97 518.043 259.292 518.048 260.615Z" fill="black"/>
<path fill-rule="evenodd" clip-rule="evenodd" d="M198.532 161.396C198.527 160.072 198.523 158.749 198.519 157.427C198.524 158.751 198.528 160.074 198.532 161.396Z" fill="black"/>
<path fill-rule="evenodd" clip-rule="evenodd" d="M260.25 45.4781C258.929 45.4695 257.609 45.4622 256.289 45.4536C257.616 44.9159 258.933 45.1745 260.25 45.4781Z" fill="black"/>
<path fill-rule="evenodd" clip-rule="evenodd" d="M269.188 453.099C269.172 453.982 269.155 454.864 269.137 455.745C269.153 454.861 269.17 453.979 269.188 453.099Z" fill="black"/>
<path fill-rule="evenodd" clip-rule="evenodd" d="M102.473 135.919C103.136 135.926 103.797 135.932 104.453 135.941C103.789 135.934 103.131 135.926 102.473 135.919Z" fill="black"/>
<path fill-rule="evenodd" clip-rule="evenodd" d="M475.148 369.755C475.136 368.871 475.126 367.988 475.114 367.109C475.125 367.994 475.136 368.875 475.148 369.755Z" fill="black"/>
<path fill-rule="evenodd" clip-rule="evenodd" d="M508.737 196.453C508.778 195.57 508.82 194.687 508.861 193.807C508.819 194.691 508.778 195.572 508.737 196.453Z" fill="black"/>
<path fill-rule="evenodd" clip-rule="evenodd" d="M448.797 62.8385C448.749 63.7213 448.701 64.6047 448.653 65.4844C448.7 64.6009 448.748 63.7205 448.797 62.8385Z" fill="black"/>
<path fill-rule="evenodd" clip-rule="evenodd" d="M618.372 353.219C618.38 352.335 618.389 351.452 618.398 350.573C618.388 351.456 618.38 352.338 618.372 353.219Z" fill="black"/>
<path fill-rule="evenodd" clip-rule="evenodd" d="M355.68 48.2865C355.655 47.4029 355.631 46.5194 355.605 45.6406C355.63 46.5251 355.655 47.4058 355.68 48.2865Z" fill="black"/>
<path fill-rule="evenodd" clip-rule="evenodd" d="M79.6411 105.172C79.6787 104.289 79.7157 103.405 79.7533 102.526C79.715 103.41 79.6787 104.291 79.6411 105.172Z" fill="black"/>
<path fill-rule="evenodd" clip-rule="evenodd" d="M317.684 95.5851C318.346 95.5825 319.008 95.5792 319.664 95.5765C318.999 95.5792 318.342 95.5825 317.684 95.5851Z" fill="black"/>
<path fill-rule="evenodd" clip-rule="evenodd" d="M539.891 50.9323C539.848 50.0489 539.804 49.1672 539.761 48.2865C539.805 49.17 539.848 50.0507 539.891 50.9323Z" fill="black"/>
<path fill-rule="evenodd" clip-rule="evenodd" d="M104.782 187.854C104.784 188.738 104.784 189.621 104.784 190.5C104.783 189.616 104.783 188.735 104.782 187.854Z" fill="black"/>
<path fill-rule="evenodd" clip-rule="evenodd" d="M622.426 341.312C622.372 340.43 622.319 339.547 622.265 338.667C622.319 339.55 622.373 340.431 622.426 341.312Z" fill="black"/>
<path fill-rule="evenodd" clip-rule="evenodd" d="M293.918 334.399C294.58 334.377 295.243 334.357 295.898 334.336C295.234 334.358 294.576 334.379 293.918 334.399Z" fill="black"/>
<path fill-rule="evenodd" clip-rule="evenodd" d="M508.876 214.312C508.824 213.429 508.773 212.547 508.721 211.667C508.773 212.55 508.824 213.431 508.876 214.312Z" fill="black"/>
<path fill-rule="evenodd" clip-rule="evenodd" d="M192.254 318.484C191.373 318.49 190.493 318.495 189.613 318.501C190.494 318.495 191.373 318.49 192.254 318.484Z" fill="black"/>
<path fill-rule="evenodd" clip-rule="evenodd" d="M171.129 318.368C170.248 318.451 169.368 318.534 168.488 318.617C169.369 318.533 170.249 318.451 171.129 318.368Z" fill="black"/>
<path fill-rule="evenodd" clip-rule="evenodd" d="M508.168 208.359C508.148 207.697 508.128 207.035 508.109 206.375C508.129 207.037 508.149 207.698 508.168 208.359Z" fill="black"/>
<path fill-rule="evenodd" clip-rule="evenodd" d="M537.901 79.375C537.864 78.7125 537.827 78.0508 537.79 77.3906C537.828 78.0531 537.864 78.714 537.901 79.375Z" fill="black"/>
<path fill-rule="evenodd" clip-rule="evenodd" d="M335.83 85.3281C335.835 84.6661 335.84 84.0049 335.846 83.3438C335.841 84.0066 335.836 84.6669 335.83 85.3281Z" fill="black"/>
<path fill-rule="evenodd" clip-rule="evenodd" d="M243.976 267.376C244.339 267.396 244.702 267.417 245.066 267.438C244.252 268.141 243.3 267.419 243.976 267.376Z" fill="black"/>
<path fill-rule="evenodd" clip-rule="evenodd" d="M284.016 333.717C284.458 333.709 284.899 333.701 285.336 333.694C284.892 333.703 284.454 333.709 284.016 333.717Z" fill="black"/>
<path fill-rule="evenodd" clip-rule="evenodd" d="M621.76 336.021C621.71 335.359 621.661 334.697 621.611 334.036C621.662 334.7 621.71 335.359 621.76 336.021Z" fill="black"/>
<path fill-rule="evenodd" clip-rule="evenodd" d="M106.847 205.714C106.791 206.375 106.735 207.037 106.68 207.698C106.736 207.035 106.792 206.374 106.847 205.714Z" fill="black"/>
<path fill-rule="evenodd" clip-rule="evenodd" d="M409.445 120.541C408.655 121.131 407.702 120.801 406.805 120.781C407.685 120.701 408.566 120.621 409.445 120.541Z" fill="black"/>
<path fill-rule="evenodd" clip-rule="evenodd" d="M617.709 361.818C617.72 361.155 617.73 360.493 617.74 359.833C617.73 360.497 617.72 361.157 617.709 361.818Z" fill="black"/>
<path fill-rule="evenodd" clip-rule="evenodd" d="M468.452 386.292C468.503 385.629 468.555 384.967 468.607 384.307C468.555 384.971 468.503 385.631 468.452 386.292Z" fill="black"/>
<path fill-rule="evenodd" clip-rule="evenodd" d="M95.2109 135.23C95.6533 135.255 96.0949 135.281 96.5312 135.307C96.0882 135.282 95.6496 135.255 95.2109 135.23Z" fill="black"/>
<path fill-rule="evenodd" clip-rule="evenodd" d="M388.32 98.7809C387.44 98.8524 386.56 98.9238 385.68 98.9953C386.56 98.9238 387.44 98.8524 388.32 98.7809Z" fill="black"/>
<path fill-rule="evenodd" clip-rule="evenodd" d="M324.704 449.792C324.644 450.453 324.585 451.116 324.527 451.776C324.585 451.112 324.644 450.452 324.704 449.792Z" fill="black"/>
<path fill-rule="evenodd" clip-rule="evenodd" d="M194.895 199.33C194.015 199.396 193.135 199.462 192.254 199.529C193.135 199.462 194.015 199.396 194.895 199.33Z" fill="black"/>
<path fill-rule="evenodd" clip-rule="evenodd" d="M305.801 423.769C307.561 423.699 309.321 423.629 311.082 423.559C309.322 423.629 307.561 423.699 305.801 423.769Z" fill="black"/>
<path fill-rule="evenodd" clip-rule="evenodd" d="M466.483 361.818C466.527 360.714 466.571 359.611 466.614 358.51C466.571 359.614 466.527 360.716 466.483 361.818Z" fill="black"/>
<path fill-rule="evenodd" clip-rule="evenodd" d="M501.867 63.2894C502.967 63.2094 504.067 63.1293 505.168 63.0493C504.068 63.1293 502.967 63.2094 501.867 63.2894Z" fill="black"/>
<path fill-rule="evenodd" clip-rule="evenodd" d="M187.633 287.959C188.733 288.029 189.834 288.101 190.934 288.171C189.833 288.1 188.733 288.029 187.633 287.959Z" fill="black"/>
<path fill-rule="evenodd" clip-rule="evenodd" d="M265.894 262.599C265.429 261.607 265.455 260.725 265.969 259.953C266.245 260.854 266.22 261.735 265.894 262.599Z" fill="black"/>
<path fill-rule="evenodd" clip-rule="evenodd" d="M582.061 325.438C582.071 326.322 582.08 327.205 582.091 328.083C582.082 327.198 582.072 326.318 582.061 325.438Z" fill="black"/>
<path fill-rule="evenodd" clip-rule="evenodd" d="M317.369 412.089C317.358 411.205 317.348 410.321 317.338 409.443C317.349 410.329 317.359 411.209 317.369 412.089Z" fill="black"/>
<path fill-rule="evenodd" clip-rule="evenodd" d="M285.996 323.673C286.877 323.747 287.757 323.821 288.637 323.895C287.756 323.821 286.877 323.746 285.996 323.673Z" fill="black"/>
<path fill-rule="evenodd" clip-rule="evenodd" d="M269.535 265.852C269.398 264.789 269.59 264.394 270.11 264.667C270.246 265.666 270.055 266.061 269.535 265.852Z" fill="black"/>
<path fill-rule="evenodd" clip-rule="evenodd" d="M302.183 220.927C302.174 221.589 302.166 222.252 302.157 222.911C302.166 222.248 302.174 221.588 302.183 220.927Z" fill="black"/>
<path fill-rule="evenodd" clip-rule="evenodd" d="M605.19 346.604C605.185 345.942 605.179 345.28 605.173 344.62C605.178 345.282 605.184 345.943 605.19 346.604Z" fill="black"/>
<path fill-rule="evenodd" clip-rule="evenodd" d="M510.449 63.1716C511.329 63.1702 512.21 63.1689 513.09 63.1669C512.209 63.1683 511.329 63.1702 510.449 63.1716Z" fill="black"/>
<path fill-rule="evenodd" clip-rule="evenodd" d="M488.664 143.974L491.305 143.761L488.664 143.974Z" fill="black"/>
<path fill-rule="evenodd" clip-rule="evenodd" d="M447.074 255.003C446.633 254.996 446.19 254.988 445.754 254.982C446.198 254.989 446.636 254.996 447.074 255.003Z" fill="black"/>
<path fill-rule="evenodd" clip-rule="evenodd" d="M462.527 381C462.568 380.338 462.608 379.676 462.648 379.016C462.607 379.679 462.568 380.34 462.527 381Z" fill="black"/>
<path fill-rule="evenodd" clip-rule="evenodd" d="M360.594 391.228C360.152 391.244 359.71 391.261 359.273 391.278C359.717 391.261 360.155 391.243 360.594 391.228Z" fill="black"/>
<path fill-rule="evenodd" clip-rule="evenodd" d="M302.163 223.573C302.168 224.235 302.172 224.899 302.177 225.557C302.174 224.893 302.168 224.233 302.163 223.573Z" fill="black"/>
<path fill-rule="evenodd" clip-rule="evenodd" d="M262.23 53.9082C261.569 53.9089 260.906 53.9095 260.25 53.9095C260.915 53.9095 261.573 53.9089 262.23 53.9082Z" fill="black"/>
<path fill-rule="evenodd" clip-rule="evenodd" d="M265.369 106.495C266.303 107.103 266.441 107.764 265.784 108.479C264.725 108.396 264.589 107.735 265.369 106.495Z" fill="black"/>
<path fill-rule="evenodd" clip-rule="evenodd" d="M315.043 79.0245C315.923 79.0377 316.804 79.0509 317.684 79.0642C316.803 79.0509 315.922 79.0377 315.043 79.0245Z" fill="black"/>
<path fill-rule="evenodd" clip-rule="evenodd" d="M296.232 89.9584C296.23 90.6207 296.228 91.2829 296.226 91.9427C296.228 91.2788 296.23 90.619 296.232 89.9584Z" fill="black"/>
<path fill-rule="evenodd" clip-rule="evenodd" d="M280.055 91.067L282.695 90.8341L280.055 91.067Z" fill="black"/>
<path fill-rule="evenodd" clip-rule="evenodd" d="M399.436 212.596C392.968 213.309 384.742 212.69 378.9 209.535C374.849 207.348 372.971 200.179 378.854 199.171C382.157 198.605 386.12 201.52 389.04 202.646C392.516 203.986 396.143 204.616 399.721 205.555C402.151 206.192 405.679 207.801 403.462 211.281C403.061 211.908 399.482 213.802 399.436 212.596Z" fill="black"/>
<path fill-rule="evenodd" clip-rule="evenodd" d="M490.645 244.48C490.011 248.641 489.916 253.237 487.923 257.039C485.051 262.522 484.485 256.649 484.938 253.637C485.605 249.196 485.967 244.649 485.634 240.16C485.362 236.482 482.891 232.175 484.7 228.865C489.635 232.069 489.736 239.231 490.645 244.48Z" fill="black"/>
<path fill-rule="evenodd" clip-rule="evenodd" d="M490.869 115.078C488.139 114.451 483.673 112.643 487.521 110.092C489.085 109.055 492.166 109.552 493.912 108.581C494.969 107.993 495.569 106.734 496.629 106.277C500.141 104.763 500.501 107.348 499.18 110.636C497.781 114.114 494.422 115.247 490.869 115.078Z" fill="black"/>
<path fill-rule="evenodd" clip-rule="evenodd" d="M489.29 93.1859C493.776 89.8251 493.166 94.0237 490.795 96.9808C489.913 97.9778 489.03 98.9739 488.146 99.9692L488.921 100.92C488.788 102.273 490.05 103.273 488.502 104.159C485.949 105.622 484.031 102.164 484.043 100.249C484.061 97.0721 487.185 95.0798 489.29 93.1859Z" fill="black"/>
<path fill-rule="evenodd" clip-rule="evenodd" d="M488.712 93.4558C484.524 97.5701 484.68 89.2869 486.907 87.5012C491.18 84.073 488.427 92.0253 488.712 93.4558Z" fill="black"/>
<path fill-rule="evenodd" clip-rule="evenodd" d="M496.719 96.5684C496.421 95.1089 496.382 88.1975 499.283 88.6573C502.437 89.1571 498.964 96.7857 496.719 96.5684Z" fill="black"/>
<path fill-rule="evenodd" clip-rule="evenodd" d="M491.305 115.397C491.747 115.415 492.189 115.434 492.625 115.452C492.181 115.434 491.743 115.415 491.305 115.397Z" fill="black"/>
<path fill-rule="evenodd" clip-rule="evenodd" d="M290.18 63.5C286.608 57.402 294.761 46.9898 298.843 55.4171C299.397 56.5585 300.65 59.6348 299.142 60.5811C297.523 61.5968 297.87 60.1207 296.537 59.8984C294.949 59.633 295.468 58.8905 293.623 59.6971C292.312 60.27 291.086 62.4483 290.18 63.5Z" fill="black"/>
</svg>
